<?xml version="1.0" encoding="UTF-8" standalone="no"?>
<svg xmlns="http://www.w3.org/2000/svg" version="1.1" xmlns:xlink="http://www.w3.org/1999/xlink" xmlns:svgjs="http://svgjs.dev/svgjs" width="308.7612359841165" height="304.915625" viewBox="0 0 106.00782394174519 104.68749999999999">
<g transform="matrix(1,0,0,1,0.00007343750002064553,0)">
<svg viewBox="0 0 320 360" data-background-color="#ffffff" preserveAspectRatio="xMidYMid meet" height="1125" width="1000" xmlns="http://www.w3.org/2000/svg" xmlns:xlink="http://www.w3.org/1999/xlink">
<g id="tight-bounds" transform="matrix(1,0,0,1,0.000023499999997511622,0)">
<svg viewBox="0 0 320 360" height="360" width="320">
<g>
<svg>
</svg>
</g>
<g>
<svg viewBox="0 0 320 360" height="360" width="320">
<g>
<path transform="translate(-74.99272,-51.79039) scale(4.65793,4.65793)" d="M20.6 59.9l0.8 1-0.4-1.3c-0.1-0.6-0.8 0.1-0.4 0.3M21.5 59.3c0.3 0.5 0.6 1 0.6 1.5 0 0.7 0.6 1 1.1 1.2-0.7-0.8-1.1-3-1.7-2.7M59.9 16.9c1.7 0 3.3-0.2 5.1 0.2 4.4 1.1 8.1 3.3 10.6 6.4l7 11.2c0.3 2.8 0.9 5.9 0.8 9.3 0.7 0 0.6-1 1.4-1.2-0.8 2-1.2 4.5-1.4 7.4-0.5-1.6 0-4 0.1-5.3-0.7 1.1-1.1 0.3-1.1-0.2 0.1-0.8-0.3-0.7-0.6-1-1.1-1-1.8-2.1-2.6-3.8 0.5-1.3 0.6-3.2-1-4.2-0.5-0.3-1.1-0.8-1.4-1.6-0.4-1.1-1.1-2.4-0.9-4.1 0.1-0.5-1.5 1.1-2.4 0.4-3.9-2.7-7.8-5.8-12.5-8.4-2.5 0-4.3-0.9-5.2-2-0.8-1-0.2-2.3 1-2.4 0.7 0 1.5-0.2 2.1 0.2 0.1-0.4 0.5-0.9 1-0.9M50 14.6l0.2 0.1c1 0.2 1.5 1.6 2.6 1.1 0 0.7 0.1 1.4-0.1 1.9-0.3 0.8-1.2 0.8-1.9 0.8-6.7-0.4-10.6 2.4-14.7 4.8-1.1 0.7-2.3 1.2-3.2 2.1-4.3 4-9 7.7-10.1 15.1l-0.9 8.2c-0.1 0.9-1.1 1.8-0.9 2.9l0.7 4.9c-0.7-0.7-1.1 0.2-0.9 0.6 0.1 0.3 0.5 1.3 1.1 0.4 0.8 1.5 1.6 4.4 2.7 5.7 3.4 4 7.8 7.6 11.4 11.2 0.9-0.2 1.6-0.2 1.8-0.8 0.3 0.6-0.3 1.2-0.8 1.3 1.6 1 3.4 1.9 5.8 2.1 3.1 0.2 6 0.7 8.7 1.4 1.4-0.4 2.8-0.6 4.3-0.7 0.5 0 0.8-0.8 1.4-1l0.1-1c0.6 0.9 0.5-0.3 0.1-0.9 0.7 0.6 0.9 1.1 1.2 1.5 0-0.3 0.8-1.4 0.8-0.1l0.2-1.3c0.3-0.2 0.4 1.1 0.7 0.2 0.3-0.9 0.9-0.2 1.5-0.5-0.2 0.4-0.1 1.2 0.6 0.7l0.8-0.7c0.5 1.2 1.3 0.7 1.7 0.5 4.4-2.8 8.8-6.1 13-9.4l-0.1 1.3 0.5-1.6c0.5 0.5 0.9 0.1 1.1-0.2 0.6-1 1.4-2 2.7-2.9-1.6 4.3-3.5 7.7-5.9 10.5l-1 1.2c0 0.7-0.2 1.6-1 1.7-0.4 0.1-1.2-0.2-1.8 0.4-0.3 0.4 0.7 1.2-0.1 0.6-0.7-0.5-1.4 0-2.2 0.2-0.6 0.2 0.4 0.8 0.6 1.2 0.2 0.4 0.4 0.8 0.3 1.3l-1.1-1.2c-1.3 0.7-2.1 2-3.2 3-0.5 0.4-0.3 1.1-0.3 1.7-0.7 0-1.5-0.2-1.9 0.2-0.3 0.4-0.2 1-0.2 1.6-1-0.1-1.1-1.6-2-1.3-0.9 0.2-1.9 0.3-2.7 0.8 0.6 1.2-1 0.5-0.8 0.7-1.5-0.9-2.8-1.6-4.4-1-3.4-1.1-7.6-0.6-10.7-0.2 0-0.5 0.1-1-0.1-1.1-0.2 0.5-0.8 0.3-0.7 0.3-1.9-1.3-3.8-2.1-5.8-3.2-1.8 0.2-3.5-0.7-4-1.2-1.4-1.3-3-0.6-4.3-0.9-2.8-0.7-3.8-3.6-4.1-5.6-0.2-1-1-1.4-1.3-1.3-1.3-4.2-3.3-8-4.9-11.9-0.4-1-0.3-2-0.3-3.1 0.5 0.2 1 0.1 0.9-0.6-0.5-3.3-1.7-5.8-3-8.2 0.7-3.4 0.8-7.4 2.4-10.4 1.4-2.7 4-4.1 5.8-6.4 0.6-0.8 0.6-1.9 1.2-2.6 2-2 4-4.1 6.2-5.9 1-0.8 2.2 0 3.7-0.3 0.5-1.8 2.5-3.4 4.4-2.9 0.8 0.2 2.4-1.9 2.9-2.1 0.8-0.3 0.4 0.8 0.4 1.5 1.9-1.5 4.5-2.3 6.9-3.2" fill="#1d72bd" fill-rule="nonzero" stroke="none" stroke-width="1" stroke-linecap="butt" stroke-linejoin="miter" stroke-miterlimit="10" stroke-dasharray="" stroke-dashoffset="0" font-family="none" font-weight="none" font-size="none" text-anchor="none" style="mix-blend-mode: normal" data-fill-palette-color="tertiary">
</path>
</g>
<g transform="matrix(1,0,0,1,83.08947446129697,90)">
<svg viewBox="0 0 153.82105107740605 180" height="180" width="153.82105107740605">
<g>
<svg viewBox="0 0 153.82105107740605 180" height="180" width="153.82105107740605">
<g><svg viewBox="0 0 192 224.67666004056014" height="180" width="153.82105107740605">
<g transform="matrix(1,0,0,1,0,95.64022279359656)"><svg viewBox="0 0 192 129.03643724696357" height="129.03643724696357" width="192">
<g id="textblocktransform"><svg viewBox="0 0 192 129.03643724696357" height="129.03643724696357" width="192" id="textblock">
<g><svg viewBox="0 0 192 129.03643724696357" height="129.03643724696357" width="192">
<g transform="matrix(1,0,0,1,0,0)"><svg width="192" viewBox="1.2 -31.86 48.239999999999995 32.42" height="129.03643724696357" data-palette-color="#ffdc00">
<g class="wordmark-text-0" data-fill-palette-color="primary" id="text-0"><path d="M21.66-10.79L21.66 0 1.2 0 1.2-2.86 17.21-29 4.05-29 4.05-21.19 1.2-21.19 1.2-31.86 21.14-31.86 21.14-29 5.3-2.86 18.8-2.86 18.8-10.79 21.66-10.79ZM49.44-6.3L49.44-6.3Q49.44-4.3 48.44-2.98 47.43-1.66 45.86-0.88 44.28-0.1 42.34 0.23 40.4 0.56 38.55 0.56L38.55 0.56Q35.45 0.56 32.37-0.34 29.29-1.25 27.05-2.71L27.05-2.71 28.54-5.59Q31.05-4 33.49-3.15 35.94-2.29 38.55-2.29L38.55-2.29Q46.09-2.29 46.09-6.2L46.09-6.2Q46.09-7.15 45.47-7.75 44.85-8.35 43.8-8.73 42.75-9.11 41.39-9.33 40.04-9.55 38.55-9.74L38.55-9.74Q36.64-10.01 34.76-10.38 32.88-10.74 31.33-11.47 29.78-12.21 28.84-13.43 27.9-14.65 27.9-16.65L27.9-16.65Q27.9-18.36 28.77-19.6 29.64-20.85 31.09-21.68 32.54-22.51 34.49-22.9 36.45-23.29 38.55-23.29L38.55-23.29Q41.55-23.29 43.92-22.6 46.29-21.9 48.19-20.61L48.19-20.61 46.85-17.99Q44.89-19.36 42.89-19.91 40.89-20.46 38.55-20.46L38.55-20.46Q37.5-20.46 36.22-20.28 34.93-20.09 33.84-19.64 32.74-19.19 31.99-18.47 31.25-17.75 31.25-16.65L31.25-16.65Q31.25-15.7 31.87-15.12 32.49-14.55 33.54-14.17 34.59-13.79 35.95-13.57 37.3-13.35 38.79-13.16L38.79-13.16Q40.65-12.89 42.54-12.52 44.43-12.16 45.98-11.45 47.53-10.74 48.48-9.52 49.44-8.3 49.44-6.3Z" fill="#ffdc00" data-fill-palette-color="primary">
</path>
</g></svg></g></svg></g></svg></g></svg></g>
<g transform="matrix(1,0,0,1,36.67199999999999,0)"><svg viewBox="0 0 118.65600000000002 76.81070972477066" height="76.81070972477066" width="118.65600000000002">
<g><svg xmlns="http://www.w3.org/2000/svg" data-name="Layer 1" viewBox="17.75 27.36 54.5 35.28" x="0" y="0" height="76.81070972477066" width="118.65600000000002" class="icon-icon-0" data-fill-palette-color="accent" id="icon-0">
<path data-name="Compound Path" d="M31.72 29.46V41.33H19.85V29.46H31.72m2.1-2.1H17.75V43.42H33.82V27.36Z" fill="#d82e2e" data-fill-palette-color="accent">
</path><path data-name="Compound Path" d="M50.93 29.46V41.33H39.07V29.46H50.93m2.1-2.1H37V43.42H53V27.36Z" fill="#d82e2e" data-fill-palette-color="accent">
</path><path data-name="Compound Path" d="M50.93 48.67V60.54H39.07V48.67H50.93m2.1-2.1H37V62.64H53V46.58Z" fill="#d82e2e" data-fill-palette-color="accent">
</path><path data-name="Compound Path" d="M70.15 48.67V60.54H58.28V48.67H70.15m2.1-2.1H56.18V62.64H72.25V46.58Z" fill="#d82e2e" data-fill-palette-color="accent"></path>
</svg></g></svg></g><g></g></svg></g></svg></g></svg></g></svg></g><defs></defs></svg><rect width="320" height="360" fill="none" stroke="none" visibility="hidden"></rect></g></svg></g></svg>